<svg xmlns="http://www.w3.org/2000/svg" version="1.1" xmlns:xlink="http://www.w3.org/1999/xlink" xmlns:svgjs="http://svgjs.dev/svgjs" viewBox="0 0 800 800"><defs><linearGradient x1="50%" y1="0%" x2="50%" y2="100%" id="ffflurry-grad" gradientTransform="rotate(270)"><stop stop-color="hsl(238, 82%, 13%)" stop-opacity="1" offset="0%"></stop><stop stop-color="hsl(1.4, 100%, 67%)" stop-opacity="1" offset="45%"></stop><stop stop-color="hsl(167, 52%, 78%)" stop-opacity="1" offset="100%"></stop></linearGradient></defs><rect width="100%" height="100%" fill="hsl(238, 82%, 13%)"></rect><g fill="url(#ffflurry-grad)"><rect width="40" height="3" x="58" y="205.5" rx="1.5" transform="rotate(45, 78, 207)" opacity="0.71"></rect><rect width="372" height="3" x="91" y="451.5" rx="1.5" transform="rotate(45, 277, 453)" opacity="0.16"></rect><rect width="231" height="3" x="48.5" y="171.5" rx="1.5" transform="rotate(45, 164, 173)" opacity="0.59"></rect><rect width="138" height="3" x="67" y="439.5" rx="1.5" transform="rotate(45, 136, 441)" opacity="0.38"></rect><rect width="218" height="3" x="653" y="679.5" rx="1.5" transform="rotate(45, 762, 681)" opacity="0.17"></rect><rect width="763" height="3" x="-35.5" y="745.5" rx="1.5" transform="rotate(45, 346, 747)" opacity="0.33"></rect><rect width="283" height="3" x="245.5" y="433.5" rx="1.5" transform="rotate(45, 387, 435)" opacity="0.69"></rect><rect width="622" height="3" x="97" y="49.5" rx="1.5" transform="rotate(45, 408, 51)" opacity="0.71"></rect><rect width="685" height="3" x="74.5" y="154.5" rx="1.5" transform="rotate(45, 417, 156)" opacity="0.42"></rect><rect width="338" height="3" x="157" y="637.5" rx="1.5" transform="rotate(45, 326, 639)" opacity="0.88"></rect><rect width="742" height="3" x="186" y="50.5" rx="1.5" transform="rotate(45, 557, 52)" opacity="0.61"></rect><rect width="503" height="3" x="348.5" y="148.5" rx="1.5" transform="rotate(45, 600, 150)" opacity="0.28"></rect><rect width="414" height="3" x="-173" y="528.5" rx="1.5" transform="rotate(45, 34, 530)" opacity="0.21"></rect><rect width="504" height="3" x="61" y="317.5" rx="1.5" transform="rotate(45, 313, 319)" opacity="0.09"></rect><rect width="359" height="3" x="512.5" y="412.5" rx="1.5" transform="rotate(45, 692, 414)" opacity="0.43"></rect><rect width="241" height="3" x="213.5" y="476.5" rx="1.5" transform="rotate(45, 334, 478)" opacity="0.65"></rect><rect width="406" height="3" x="442" y="578.5" rx="1.5" transform="rotate(45, 645, 580)" opacity="0.25"></rect><rect width="125" height="3" x="356.5" y="257.5" rx="1.5" transform="rotate(45, 419, 259)" opacity="0.38"></rect><rect width="312" height="3" x="602" y="228.5" rx="1.5" transform="rotate(45, 758, 230)" opacity="0.42"></rect><rect width="132" height="3" x="-45" y="200.5" rx="1.5" transform="rotate(45, 21, 202)" opacity="0.70"></rect><rect width="248" height="3" x="426" y="317.5" rx="1.5" transform="rotate(45, 550, 319)" opacity="0.34"></rect><rect width="183" height="3" x="97.5" y="400.5" rx="1.5" transform="rotate(45, 189, 402)" opacity="0.07"></rect><rect width="35" height="3" x="520.5" y="768.5" rx="1.5" transform="rotate(45, 538, 770)" opacity="0.09"></rect><rect width="40" height="3" x="666" y="769.5" rx="1.5" transform="rotate(45, 686, 771)" opacity="0.09"></rect><rect width="320" height="3" x="-66" y="378.5" rx="1.5" transform="rotate(45, 94, 380)" opacity="0.99"></rect><rect width="309" height="3" x="26.5" y="644.5" rx="1.5" transform="rotate(45, 181, 646)" opacity="0.25"></rect><rect width="325" height="3" x="58.5" y="53.5" rx="1.5" transform="rotate(45, 221, 55)" opacity="0.08"></rect><rect width="234" height="3" x="447" y="702.5" rx="1.5" transform="rotate(45, 564, 704)" opacity="0.28"></rect><rect width="513" height="3" x="-123.5" y="49.5" rx="1.5" transform="rotate(45, 133, 51)" opacity="0.44"></rect><rect width="439" height="3" x="115.5" y="225.5" rx="1.5" transform="rotate(45, 335, 227)" opacity="0.85"></rect><rect width="222" height="3" x="-25" y="742.5" rx="1.5" transform="rotate(45, 86, 744)" opacity="0.57"></rect><rect width="386" height="3" x="-152" y="58.5" rx="1.5" transform="rotate(45, 41, 60)" opacity="0.24"></rect><rect width="213" height="3" x="152.5" y="394.5" rx="1.5" transform="rotate(45, 259, 396)" opacity="0.25"></rect><rect width="201" height="3" x="338.5" y="323.5" rx="1.5" transform="rotate(45, 439, 325)" opacity="0.12"></rect><rect width="255" height="3" x="315.5" y="417.5" rx="1.5" transform="rotate(45, 443, 419)" opacity="0.80"></rect><rect width="323" height="3" x="365.5" y="254.5" rx="1.5" transform="rotate(45, 527, 256)" opacity="0.09"></rect><rect width="408" height="3" x="258" y="600.5" rx="1.5" transform="rotate(45, 462, 602)" opacity="0.57"></rect><rect width="294" height="3" x="126" y="166.5" rx="1.5" transform="rotate(45, 273, 168)" opacity="0.76"></rect><rect width="126" height="3" x="91" y="324.5" rx="1.5" transform="rotate(45, 154, 326)" opacity="0.83"></rect><rect width="262" height="3" x="530" y="181.5" rx="1.5" transform="rotate(45, 661, 183)" opacity="0.70"></rect><rect width="298" height="3" x="179" y="394.5" rx="1.5" transform="rotate(45, 328, 396)" opacity="0.58"></rect><rect width="334" height="3" x="-113" y="304.5" rx="1.5" transform="rotate(45, 54, 306)" opacity="0.23"></rect><rect width="395" height="3" x="173.5" y="545.5" rx="1.5" transform="rotate(45, 371, 547)" opacity="0.59"></rect><rect width="191" height="3" x="151.5" y="277.5" rx="1.5" transform="rotate(45, 247, 279)" opacity="0.11"></rect><rect width="212" height="3" x="7" y="500.5" rx="1.5" transform="rotate(45, 113, 502)" opacity="1.00"></rect><rect width="93" height="3" x="565.5" y="358.5" rx="1.5" transform="rotate(45, 612, 360)" opacity="0.08"></rect><rect width="460" height="3" x="531" y="541.5" rx="1.5" transform="rotate(45, 761, 543)" opacity="0.33"></rect><rect width="87" height="3" x="214.5" y="534.5" rx="1.5" transform="rotate(45, 258, 536)" opacity="0.14"></rect><rect width="182" height="3" x="288" y="355.5" rx="1.5" transform="rotate(45, 379, 357)" opacity="0.64"></rect><rect width="534" height="3" x="39" y="78.5" rx="1.5" transform="rotate(45, 306, 80)" opacity="0.32"></rect><rect width="245" height="3" x="366.5" y="369.5" rx="1.5" transform="rotate(45, 489, 371)" opacity="0.50"></rect><rect width="521" height="3" x="475.5" y="149.5" rx="1.5" transform="rotate(45, 736, 151)" opacity="0.48"></rect><rect width="428" height="3" x="547" y="763.5" rx="1.5" transform="rotate(45, 761, 765)" opacity="0.18"></rect><rect width="240" height="3" x="291" y="493.5" rx="1.5" transform="rotate(45, 411, 495)" opacity="0.60"></rect><rect width="389" height="3" x="494.5" y="652.5" rx="1.5" transform="rotate(45, 689, 654)" opacity="0.75"></rect><rect width="54" height="3" x="199" y="344.5" rx="1.5" transform="rotate(45, 226, 346)" opacity="0.17"></rect><rect width="88" height="3" x="604" y="274.5" rx="1.5" transform="rotate(45, 648, 276)" opacity="0.41"></rect><rect width="557" height="3" x="171.5" y="725.5" rx="1.5" transform="rotate(45, 450, 727)" opacity="0.35"></rect><rect width="64" height="3" x="645" y="490.5" rx="1.5" transform="rotate(45, 677, 492)" opacity="0.10"></rect><rect width="417" height="3" x="-89.5" y="580.5" rx="1.5" transform="rotate(45, 119, 582)" opacity="0.42"></rect><rect width="313" height="3" x="104.5" y="618.5" rx="1.5" transform="rotate(45, 261, 620)" opacity="0.38"></rect><rect width="482" height="3" x="-205" y="424.5" rx="1.5" transform="rotate(45, 36, 426)" opacity="0.80"></rect><rect width="433" height="3" x="535.5" y="343.5" rx="1.5" transform="rotate(45, 752, 345)" opacity="0.42"></rect><rect width="478" height="3" x="272" y="167.5" rx="1.5" transform="rotate(45, 511, 169)" opacity="0.15"></rect><rect width="301" height="3" x="-47.5" y="131.5" rx="1.5" transform="rotate(45, 103, 133)" opacity="0.20"></rect><rect width="561" height="3" x="-240.5" y="651.5" rx="1.5" transform="rotate(45, 40, 653)" opacity="0.73"></rect><rect width="96" height="3" x="345" y="633.5" rx="1.5" transform="rotate(45, 393, 635)" opacity="0.11"></rect><rect width="475" height="3" x="244.5" y="486.5" rx="1.5" transform="rotate(45, 482, 488)" opacity="0.19"></rect><rect width="430" height="3" x="508" y="53.5" rx="1.5" transform="rotate(45, 723, 55)" opacity="0.19"></rect><rect width="360" height="3" x="17" y="487.5" rx="1.5" transform="rotate(45, 197, 489)" opacity="0.33"></rect><rect width="341" height="3" x="378.5" y="539.5" rx="1.5" transform="rotate(45, 549, 541)" opacity="0.43"></rect><rect width="54" height="3" x="530" y="633.5" rx="1.5" transform="rotate(45, 557, 635)" opacity="0.95"></rect><rect width="539" height="3" x="292.5" y="432.5" rx="1.5" transform="rotate(45, 562, 434)" opacity="0.74"></rect><rect width="109" height="3" x="586.5" y="732.5" rx="1.5" transform="rotate(45, 641, 734)" opacity="0.31"></rect><rect width="304" height="3" x="66" y="203.5" rx="1.5" transform="rotate(45, 218, 205)" opacity="0.81"></rect><rect width="487" height="3" x="-83.5" y="256.5" rx="1.5" transform="rotate(45, 160, 258)" opacity="0.13"></rect><rect width="525" height="3" x="-36.5" y="744.5" rx="1.5" transform="rotate(45, 226, 746)" opacity="0.93"></rect></g></svg>
